<svg xmlns="http://www.w3.org/2000/svg" width="37" height="25"><defs><filter id="a" width="38" height="39" x="-5" y="-7" filterUnits="userSpaceOnUse"><feOffset dy="1" in="SourceGraphic" result="FeOffset1533Out"/><feGaussianBlur in="FeOffset1533Out" result="FeGaussianBlur1534Out" stdDeviation="0 0"/></filter><filter id="e" width="200%" height="200%" x="-50%" y="-50%"><feGaussianBlur in="SourceGraphic" result="FeGaussianBlur1564Out" stdDeviation="6.5 6.5"/></filter><filter id="h" width="200%" height="200%" x="-50%" y="-50%"><feGaussianBlur in="SourceGraphic" result="FeGaussianBlur1571Out" stdDeviation="0 0"/></filter><filter id="j" width="200%" height="200%" x="-50%" y="-50%"><feGaussianBlur in="SourceGraphic" result="FeGaussianBlur1598Out" stdDeviation="6.5 6.5"/></filter><filter id="m" width="200%" height="200%" x="-50%" y="-50%"><feGaussianBlur in="SourceGraphic" result="FeGaussianBlur1605Out" stdDeviation="0 0"/></filter><filter id="o" width="200%" height="200%" x="-50%" y="-50%"><feGaussianBlur in="SourceGraphic" result="FeGaussianBlur1632Out" stdDeviation="6.5 6.5"/></filter><filter id="r" width="200%" height="200%" x="-50%" y="-50%"><feGaussianBlur in="SourceGraphic" result="FeGaussianBlur1639Out" stdDeviation="0 0"/></filter><filter id="t" width="44" height="46" x="-10" y="-10" filterUnits="userSpaceOnUse"><feOffset dy="1" in="SourceGraphic" result="FeOffset1656Out"/><feGaussianBlur in="FeOffset1656Out" result="FeGaussianBlur1657Out" stdDeviation="0 0"/></filter><filter id="x" width="200%" height="200%" x="-50%" y="-50%"><feGaussianBlur in="SourceGraphic" result="FeGaussianBlur1687Out" stdDeviation="6.5 6.5"/></filter><filter id="A" width="200%" height="200%" x="-50%" y="-50%"><feGaussianBlur in="SourceGraphic" result="FeGaussianBlur1694Out" stdDeviation="0 0"/></filter><filter id="C" width="200%" height="200%" x="-50%" y="-50%"><feGaussianBlur in="SourceGraphic" result="FeGaussianBlur1721Out" stdDeviation="6.5 6.5"/></filter><filter id="F" width="200%" height="200%" x="-50%" y="-50%"><feGaussianBlur in="SourceGraphic" result="FeGaussianBlur1728Out" stdDeviation="0 0"/></filter><filter id="H" width="200%" height="200%" x="-50%" y="-50%"><feGaussianBlur in="SourceGraphic" result="FeGaussianBlur1755Out" stdDeviation="6.5 6.5"/></filter><filter id="K" width="200%" height="200%" x="-50%" y="-50%"><feGaussianBlur in="SourceGraphic" result="FeGaussianBlur1762Out" stdDeviation="0 0"/></filter><mask id="b" width="2" height="2" x="-1" y="-1"><path fill="#fff" d="M5 3h18v18H5z"/><path d="M14 3c4.97 0 9 3.938 9 8.796 0 4.859-4.03 8.797-9 8.797s-9-3.938-9-8.797C5 6.938 9.03 3 14 3z"/></mask><mask id="f"><path fill="#fff" d="M16.669 7.495c.127.506.14.549.128 1.068-.005.201-.121 1.128-.09 1.412.026.234.086.253.18.446.163.336.108.8.046 1.14-.035.184-.107.448-.217.6-.122.167-.365.168-.472.363-.155.28-.067.673-.165.976-.11.343-.393.367-.414.817l.414.058c.138.29.392.874.651 1.05l.65.175c.761.307 1.606.675 2.368.992.694.289 1.525.391 1.776 1.109 0 .487.046 1.637.033 2.275 0 0 .003 2.024-7.557 2.024-7.56 0-7.557-2.024-7.557-2.024-.013-.638.034-1.788.034-2.275.25-.718 1.081-.82 1.775-1.109.762-.317 1.607-.685 2.367-.992l.65-.175c.26-.176.514-.76.652-1.05l.308-.074c-.07-.383-.31-.413-.41-.684l-.12-1.226c.003.02-.282-.05-.32-.074-.402-.248-.41-1.257-.449-1.676-.017-.191.253-.349.178-.7-.44-2.058.19-3.021 1.188-3.34.693-.277 1.985-.79 3.191-.058l.3.273.484.082c.243.138.398.597.398.597z"/></mask><mask id="i"><path fill="#fff" d="M16.669 7.495c.127.506.14.549.128 1.068-.005.201-.121 1.128-.09 1.412.026.234.086.253.18.446.163.336.108.8.046 1.14-.035.184-.107.448-.217.6-.122.167-.365.168-.472.363-.155.28-.067.673-.165.976-.11.343-.393.367-.414.817l.414.058c.138.29.392.874.651 1.05l.65.175c.761.307 1.606.675 2.368.992.694.289 1.525.391 1.776 1.109 0 .487.046 1.637.033 2.275 0 0 .003 2.024-7.557 2.024-7.56 0-7.557-2.024-7.557-2.024-.013-.638.034-1.788.034-2.275.25-.718 1.081-.82 1.775-1.109.762-.317 1.607-.685 2.367-.992l.65-.175c.26-.176.514-.76.652-1.05l.308-.074c-.07-.383-.31-.413-.41-.684l-.12-1.226c.003.02-.282-.05-.32-.074-.402-.248-.41-1.257-.449-1.676-.017-.191.253-.349.178-.7-.44-2.058.19-3.021 1.188-3.34.693-.277 1.985-.79 3.191-.058l.3.273.484.082c.243.138.398.597.398.597z"/></mask><mask id="k"><path fill="#fff" d="M30.136 11.006L28.99 9.892 33 5.99l1.146 1.114 2.864 2.787-1.146 1.114L33 8.22z"/></mask><mask id="n"><path fill="#fff" d="M30.136 11.006L28.99 9.892 33 5.99l1.146 1.114 2.864 2.787-1.146 1.114L33 8.22z"/></mask><mask id="p"><path fill="#fff" d="M33 19.01l-4.01-3.902 1.146-1.114L33 16.78l2.864-2.786 1.146 1.114-3.437 3.345z"/></mask><mask id="s"><path fill="#fff" d="M33 19.01l-4.01-3.902 1.146-1.114L33 16.78l2.864-2.786 1.146 1.114-3.437 3.345z"/></mask><mask id="u" width="2" height="2" x="-1" y="-1"><path fill="#fff" d="M0 0h24v25H0z"/><path d="M12 0c6.628 0 12 5.39 12 12.037 0 6.648-5.372 12.037-12 12.037-6.627 0-12-5.389-12-12.037C0 5.39 5.373 0 12 0z"/></mask><mask id="y"><path fill="#fff" d="M15.558 6.151c.17.693.187.751.171 1.462-.006.274-.162 1.543-.12 1.932.036.32.115.346.24.61.217.46.144 1.095.061 1.559-.046.254-.142.615-.29.822-.161.228-.485.23-.628.496-.206.384-.09.922-.22 1.337-.148.47-.524.502-.553 1.117l.553.08c.185.397.523 1.196.868 1.437l.868.24c1.014.42 2.14.923 3.156 1.357.925.394 2.033.535 2.367 1.517 0 .666.063 2.24.046 3.113 0 0 .003 2.77-10.077 2.77S1.924 23.23 1.924 23.23c-.018-.873.045-2.447.045-3.113.334-.982 1.442-1.123 2.367-1.517 1.016-.434 2.142-.937 3.156-1.358l.868-.24c.345-.24.683-1.039.868-1.436l.41-.101c-.092-.525-.413-.566-.547-.937l-.158-1.677c.003.026-.378-.07-.428-.101-.535-.34-.546-1.72-.598-2.294-.023-.262.337-.477.237-.958-.587-2.816.254-4.134 1.584-4.57.923-.379 2.647-1.081 4.255-.08l.399.373.646.114c.324.189.53.816.53.816z"/></mask><mask id="B"><path fill="#fff" d="M15.558 6.151c.17.693.187.751.171 1.462-.006.274-.162 1.543-.12 1.932.036.32.115.346.24.61.217.46.144 1.095.061 1.559-.046.254-.142.615-.29.822-.161.228-.485.23-.628.496-.206.384-.09.922-.22 1.337-.148.47-.524.502-.553 1.117l.553.08c.185.397.523 1.196.868 1.437l.868.24c1.014.42 2.14.923 3.156 1.357.925.394 2.033.535 2.367 1.517 0 .666.063 2.24.046 3.113 0 0 .003 2.77-10.077 2.77S1.924 23.23 1.924 23.23c-.018-.873.045-2.447.045-3.113.334-.982 1.442-1.123 2.367-1.517 1.016-.434 2.142-.937 3.156-1.358l.868-.24c.345-.24.683-1.039.868-1.436l.41-.101c-.092-.525-.413-.566-.547-.937l-.158-1.677c.003.026-.378-.07-.428-.101-.535-.34-.546-1.72-.598-2.294-.023-.262.337-.477.237-.958-.587-2.816.254-4.134 1.584-4.57.923-.379 2.647-1.081 4.255-.08l.399.373.646.114c.324.189.53.816.53.816z"/></mask><mask id="D"><path fill="#fff" d="M30.136 11.006L28.99 9.892 33 5.99l1.146 1.114 2.864 2.787-1.146 1.114L33 8.22z"/></mask><mask id="G"><path fill="#fff" d="M30.136 11.006L28.99 9.892 33 5.99l1.146 1.114 2.864 2.787-1.146 1.114L33 8.22z"/></mask><mask id="I"><path fill="#fff" d="M33 19.01l-4.01-3.902 1.146-1.114L33 16.78l2.864-2.786 1.146 1.114-3.437 3.345z"/></mask><mask id="L"><path fill="#fff" d="M33 19.01l-4.01-3.902 1.146-1.114L33 16.78l2.864-2.786 1.146 1.114-3.437 3.345z"/></mask><linearGradient id="g" x1="13.56" x2="14.44" y1="22" y2="6.17" gradientUnits="userSpaceOnUse"><stop offset="0" stop-opacity=".96"/><stop offset=".5" stop-color="#d0d0d0" stop-opacity=".96"/><stop offset="1" stop-color="#9e9e9e" stop-opacity=".96"/></linearGradient><linearGradient id="l" x1="33.01" x2="32.99" y1="11.01" y2="5.99" gradientUnits="userSpaceOnUse"><stop offset="0" stop-opacity=".96"/><stop offset=".5" stop-color="#d0d0d0" stop-opacity=".96"/><stop offset="1" stop-color="#9e9e9e" stop-opacity=".96"/></linearGradient><linearGradient id="q" x1="33.01" x2="32.99" y1="19.01" y2="13.99" gradientUnits="userSpaceOnUse"><stop offset="0" stop-opacity=".96"/><stop offset=".5" stop-color="#d0d0d0" stop-opacity=".96"/><stop offset="1" stop-color="#9e9e9e" stop-opacity=".96"/></linearGradient><linearGradient id="z" x1="12.08" x2="11.92" y1="26" y2="4.33" gradientUnits="userSpaceOnUse"><stop offset="0" stop-color="#9e9e9e" stop-opacity=".96"/><stop offset=".5" stop-color="#d0d0d0" stop-opacity=".96"/><stop offset="1" stop-opacity=".96"/></linearGradient><linearGradient id="E" x1="33.01" x2="32.99" y1="11.01" y2="5.99" gradientUnits="userSpaceOnUse"><stop offset="0" stop-opacity=".96"/><stop offset=".5" stop-color="#d0d0d0" stop-opacity=".96"/><stop offset="1" stop-color="#9e9e9e" stop-opacity=".96"/></linearGradient><linearGradient id="J" x1="33.01" x2="32.99" y1="19.01" y2="13.99" gradientUnits="userSpaceOnUse"><stop offset="0" stop-opacity=".96"/><stop offset=".5" stop-color="#d0d0d0" stop-opacity=".96"/><stop offset="1" stop-color="#9e9e9e" stop-opacity=".96"/></linearGradient><clipPath id="c"><path fill="#fff" d="M14 3c4.97 0 9 3.938 9 8.796 0 4.859-4.03 8.797-9 8.797s-9-3.938-9-8.797C5 6.938 9.03 3 14 3z"/></clipPath><clipPath id="v"><path fill="#fff" d="M12 0c6.628 0 12 5.39 12 12.037 0 6.648-5.372 12.037-12 12.037-6.627 0-12-5.389-12-12.037C0 5.39 5.373 0 12 0z"/></clipPath><clipPath id="w"><path d="M12 0c6.628 0 12 5.39 12 12.037 0 6.648-5.372 12.037-12 12.037-6.627 0-12-5.389-12-12.037C0 5.39 5.373 0 12 0z"/></clipPath><clipPath id="d"><path d="M14 3c4.97 0 9 3.938 9 8.796 0 4.859-4.03 8.797-9 8.797s-9-3.938-9-8.797C5 6.938 9.03 3 14 3z"/></clipPath></defs><g filter="url(#a)"><path fill="none" d="M14 3c4.97 0 9 3.938 9 8.796 0 4.859-4.03 8.797-9 8.797s-9-3.938-9-8.797C5 6.938 9.03 3 14 3z" mask="url(&quot;#b&quot;)"/><path fill="#80633b" d="M14 3c4.97 0 9 3.938 9 8.796 0 4.859-4.03 8.797-9 8.797s-9-3.938-9-8.797C5 6.938 9.03 3 14 3z"/></g><path fill="#1c242a" d="M14 3c4.97 0 9 3.938 9 8.796 0 4.859-4.03 8.797-9 8.797s-9-3.938-9-8.797C5 6.938 9.03 3 14 3z"/><path fill="none" stroke="#000" stroke-linecap="round" stroke-linejoin="round" stroke-miterlimit="20" stroke-width="4" d="M14 3c4.97 0 9 3.938 9 8.796 0 4.859-4.03 8.797-9 8.797s-9-3.938-9-8.797C5 6.938 9.03 3 14 3z" clip-path="url(&quot;#c&quot;)"/><g clip-path="url(#d)"><path fill="#fff" fill-opacity=".24" d="M-7 35V-7h42v42zM16.669 7.495s-.155-.459-.398-.597l-.485-.082-.299-.273c-1.206-.732-2.498-.219-3.19.058-.999.319-1.63 1.282-1.19 3.34.076.351-.194.509-.177.7.04.42.047 1.428.45 1.676.037.023.322.093.32.074l.118 1.226c.1.271.341.3.411.684l-.308.074c-.138.29-.392.874-.651 1.05l-.651.175c-.76.307-1.605.675-2.367.992-.694.289-1.525.391-1.775 1.109 0 .487-.047 1.637-.034 2.275 0 0-.002 2.024 7.557 2.024 7.56 0 7.557-2.024 7.557-2.024.013-.638-.033-1.788-.033-2.275-.251-.718-1.082-.82-1.776-1.109-.762-.317-1.607-.685-2.367-.992a458.08 458.08 0 00-.65-.175c-.26-.176-.514-.76-.652-1.05l-.414-.058c.02-.45.303-.474.414-.817.098-.303.01-.696.165-.976.107-.195.35-.196.472-.363.11-.152.182-.416.217-.6.062-.34.117-.804-.047-1.14-.093-.193-.153-.212-.179-.446-.031-.284.085-1.211.09-1.412.012-.52 0-.562-.128-1.068z" filter="url(#e)" mask="url(&quot;#f&quot;)"/><path fill="#bb9c66" d="M16.669 7.495c.127.506.14.549.128 1.068-.005.201-.121 1.128-.09 1.412.026.234.086.253.18.446.163.336.108.8.046 1.14-.035.184-.107.448-.217.6-.122.167-.365.168-.472.363-.155.28-.067.673-.165.976-.11.343-.393.367-.414.817l.414.058c.138.29.392.874.651 1.05l.65.175c.761.307 1.606.675 2.368.992.694.289 1.525.391 1.776 1.109 0 .487.046 1.637.033 2.275 0 0 .003 2.024-7.557 2.024-7.56 0-7.557-2.024-7.557-2.024-.013-.638.034-1.788.034-2.275.25-.718 1.081-.82 1.775-1.109.762-.317 1.607-.685 2.367-.992l.65-.175c.26-.176.514-.76.652-1.05l.308-.074c-.07-.383-.31-.413-.41-.684l-.12-1.226c.003.02-.282-.05-.32-.074-.402-.248-.41-1.257-.449-1.676-.017-.191.253-.349.178-.7-.44-2.058.19-3.021 1.188-3.34.693-.277 1.985-.79 3.191-.058l.3.273.484.082c.243.138.398.597.398.597z"/><path fill="url(#g)" d="M16.669 7.495c.127.506.14.549.128 1.068-.005.201-.121 1.128-.09 1.412.026.234.086.253.18.446.163.336.108.8.046 1.14-.035.184-.107.448-.217.6-.122.167-.365.168-.472.363-.155.28-.067.673-.165.976-.11.343-.393.367-.414.817l.414.058c.138.29.392.874.651 1.05l.65.175c.761.307 1.606.675 2.368.992.694.289 1.525.391 1.776 1.109 0 .487.046 1.637.033 2.275 0 0 .003 2.024-7.557 2.024-7.56 0-7.557-2.024-7.557-2.024-.013-.638.034-1.788.034-2.275.25-.718 1.081-.82 1.775-1.109.762-.317 1.607-.685 2.367-.992l.65-.175c.26-.176.514-.76.652-1.05l.308-.074c-.07-.383-.31-.413-.41-.684l-.12-1.226c.003.02-.282-.05-.32-.074-.402-.248-.41-1.257-.449-1.676-.017-.191.253-.349.178-.7-.44-2.058.19-3.021 1.188-3.34.693-.277 1.985-.79 3.191-.058l.3.273.484.082c.243.138.398.597.398.597z"/><path fill="#fff" fill-opacity=".24" d="M-7 35V-7h42v42zM16.669 7.495s-.155-.459-.398-.597l-.485-.082-.299-.273c-1.206-.732-2.498-.219-3.19.058-.999.319-1.63 1.282-1.19 3.34.076.351-.194.509-.177.7.04.42.047 1.428.45 1.676.037.023.322.093.32.074l.118 1.226c.1.271.341.3.411.684l-.308.074c-.138.29-.392.874-.651 1.05l-.651.175c-.76.307-1.605.675-2.367.992-.694.289-1.525.391-1.775 1.109 0 .487-.047 1.637-.034 2.275 0 0-.002 2.024 7.557 2.024 7.56 0 7.557-2.024 7.557-2.024.013-.638-.033-1.788-.033-2.275-.251-.718-1.082-.82-1.776-1.109-.762-.317-1.607-.685-2.367-.992a458.08 458.08 0 00-.65-.175c-.26-.176-.514-.76-.652-1.05l-.414-.058c.02-.45.303-.474.414-.817.098-.303.01-.696.165-.976.107-.195.35-.196.472-.363.11-.152.182-.416.217-.6.062-.34.117-.804-.047-1.14-.093-.193-.153-.212-.179-.446-.031-.284.085-1.211.09-1.412.012-.52 0-.562-.128-1.068z" filter="url(#e)" mask="url(&quot;#f&quot;)"/><path fill="#fff1d8" fill-opacity=".44" d="M6 23V5h16v18zM16.669 8.495s-.155-.459-.398-.597l-.485-.082-.299-.273c-1.206-.732-2.498-.219-3.19.058-.999.319-1.63 1.282-1.19 3.34.076.351-.194.509-.177.7.04.42.047 1.428.45 1.676.037.023.322.093.32.074l.118 1.226c.1.271.341.3.411.684l-.308.074c-.138.29-.392.874-.651 1.05l-.651.175c-.76.307-1.605.675-2.367.992-.694.289-1.525.391-1.775 1.109 0 .487-.047 1.637-.034 2.275 0 0-.002 2.024 7.557 2.024 7.56 0 7.557-2.024 7.557-2.024.013-.638-.033-1.788-.033-2.275-.251-.718-1.082-.82-1.776-1.109-.762-.317-1.607-.685-2.367-.992a458.08 458.08 0 00-.65-.175c-.26-.176-.514-.76-.652-1.05l-.414-.058c.02-.45.303-.474.414-.817.098-.303.01-.696.165-.976.107-.195.35-.196.472-.363.11-.152.182-.416.217-.6.062-.34.117-.804-.047-1.14-.093-.193-.153-.212-.179-.446-.031-.284.085-1.211.09-1.412.012-.52 0-.562-.128-1.068z" filter="url(#h)" mask="url(&quot;#i&quot;)"/></g><path fill="#fff" fill-opacity=".24" d="M16 24V-7h34v31zM33 8.22l2.864 2.786 1.146-1.114-2.864-2.787L33 5.99l-4.01 3.902 1.146 1.114z" filter="url(#j)" mask="url(&quot;#k&quot;)"/><path fill="#bb9c66" d="M30.136 11.006L28.99 9.892 33 5.99l1.146 1.114 2.864 2.787-1.146 1.114L33 8.22z"/><path fill="url(#l)" d="M30.136 11.006L28.99 9.892 33 5.99l1.146 1.114 2.864 2.787-1.146 1.114L33 8.22z"/><path fill="#fff" fill-opacity=".24" d="M16 24V-7h34v31zM33 8.22l2.864 2.786 1.146-1.114-2.864-2.787L33 5.99l-4.01 3.902 1.146 1.114z" filter="url(#j)" mask="url(&quot;#k&quot;)"/><path fill="#fff1d8" fill-opacity=".44" d="M29 12v-1.099L30.13 12zm0-7h8v5.882l-2.854-2.777L33 6.99l-4 3.892zm8 7h-1.13L37 10.902zm-4-2.78L35.858 12h-5.716zm2.864 2.786l.007-.006h-.013zm1.146-1.114l-.01-.01v.02zm-8.02 0l.01.01v-.02zm1.146 1.114l.006-.006h-.013z" filter="url(#m)" mask="url(&quot;#n&quot;)"/><path fill="#fff" fill-opacity=".24" d="M16 32V1h34v31zm17.573-13.548l3.437-3.344-1.146-1.114L33 16.78l-2.864-2.786-1.146 1.114L33 19.01z" filter="url(#o)" mask="url(&quot;#p&quot;)"/><path fill="#bb9c66" d="M33 19.01l-4.01-3.902 1.146-1.114L33 16.78l2.864-2.786 1.146 1.114-3.437 3.345z"/><path fill="url(#q)" d="M33 19.01l-4.01-3.902 1.146-1.114L33 16.78l2.864-2.786 1.146 1.114-3.437 3.345z"/><path fill="#fff" fill-opacity=".24" d="M16 32V1h34v31zm17.573-13.548l3.437-3.344-1.146-1.114L33 16.78l-2.864-2.786-1.146 1.114L33 19.01z" filter="url(#o)" mask="url(&quot;#p&quot;)"/><path fill="#fff1d8" fill-opacity=".44" d="M29 20v-3.882L32.99 20zm0-7h8v3.099l-1.136-1.105L33 17.78l-2.864-2.786L29 16.099zm8 7h-3.99l.563-.548L37 16.119zm.01-3.892l-.01-.01v.02zm-8.02 0l.01.01v-.02zM33 20.01l.01-.01h-.02z" filter="url(#r)" mask="url(&quot;#s&quot;)"/><g filter="url(#t)"><path fill="none" d="M12 0c6.628 0 12 5.39 12 12.037 0 6.648-5.372 12.037-12 12.037-6.627 0-12-5.389-12-12.037C0 5.39 5.373 0 12 0z" mask="url(&quot;#u&quot;)"/><path fill="#80633b" d="M12 0c6.628 0 12 5.39 12 12.037 0 6.648-5.372 12.037-12 12.037-6.627 0-12-5.389-12-12.037C0 5.39 5.373 0 12 0z"/></g><path fill="#1c242a" d="M12 0c6.628 0 12 5.39 12 12.037 0 6.648-5.372 12.037-12 12.037-6.627 0-12-5.389-12-12.037C0 5.39 5.373 0 12 0z"/><path fill="none" stroke="#000" stroke-linecap="round" stroke-linejoin="round" stroke-miterlimit="20" stroke-width="4" d="M12 0c6.628 0 12 5.39 12 12.037 0 6.648-5.372 12.037-12 12.037-6.627 0-12-5.389-12-12.037C0 5.39 5.373 0 12 0z" clip-path="url(&quot;#v&quot;)"/><g clip-path="url(#w)"><path fill="#fff" fill-opacity=".24" d="M-12 39V-9h48v48zM15.558 6.151s-.206-.627-.53-.816l-.646-.114-.4-.373c-1.607-1.001-3.33-.299-4.254.08-1.33.436-2.171 1.754-1.584 4.57.1.481-.26.696-.237.958.052.574.063 1.954.598 2.294.05.031.43.127.428.102l.158 1.676c.134.371.455.412.548.937l-.41.101c-.186.397-.524 1.196-.87 1.437l-.867.24c-1.014.42-2.14.923-3.156 1.357-.925.394-2.033.535-2.367 1.517 0 .666-.063 2.24-.045 3.113 0 0-.003 2.77 10.076 2.77 10.08 0 10.077-2.77 10.077-2.77.017-.873-.046-2.447-.046-3.113-.334-.982-1.442-1.123-2.367-1.517-1.016-.434-2.142-.937-3.156-1.358l-.868-.24c-.345-.24-.683-1.039-.868-1.436a154.52 154.52 0 00-.553-.08c.029-.615.405-.647.553-1.117.13-.415.014-.953.22-1.337.143-.266.467-.268.629-.496.147-.207.243-.568.289-.822.083-.464.156-1.099-.061-1.559-.125-.264-.204-.29-.24-.61-.042-.39.114-1.658.12-1.932.016-.711 0-.769-.17-1.462z" filter="url(#x)" mask="url(&quot;#y&quot;)"/><path fill="#bb9c66" d="M15.558 6.151c.17.693.187.751.171 1.462-.006.274-.162 1.543-.12 1.932.036.32.115.346.24.61.217.46.144 1.095.061 1.559-.046.254-.142.615-.29.822-.161.228-.485.23-.628.496-.206.384-.09.922-.22 1.337-.148.47-.524.502-.553 1.117l.553.08c.185.397.523 1.196.868 1.437l.868.24c1.014.42 2.14.923 3.156 1.357.925.394 2.033.535 2.367 1.517 0 .666.063 2.24.046 3.113 0 0 .003 2.77-10.077 2.77S1.924 23.23 1.924 23.23c-.018-.873.045-2.447.045-3.113.334-.982 1.442-1.123 2.367-1.517 1.016-.434 2.142-.937 3.156-1.358l.868-.24c.345-.24.683-1.039.868-1.436l.41-.101c-.092-.525-.413-.566-.547-.937l-.158-1.677c.003.026-.378-.07-.428-.101-.535-.34-.546-1.72-.598-2.294-.023-.262.337-.477.237-.958-.587-2.816.254-4.134 1.584-4.57.923-.379 2.647-1.081 4.255-.08l.399.373.646.114c.324.189.53.816.53.816z"/><path fill="url(#z)" d="M15.558 6.151c.17.693.187.751.171 1.462-.006.274-.162 1.543-.12 1.932.036.32.115.346.24.61.217.46.144 1.095.061 1.559-.046.254-.142.615-.29.822-.161.228-.485.23-.628.496-.206.384-.09.922-.22 1.337-.148.47-.524.502-.553 1.117l.553.08c.185.397.523 1.196.868 1.437l.868.24c1.014.42 2.14.923 3.156 1.357.925.394 2.033.535 2.367 1.517 0 .666.063 2.24.046 3.113 0 0 .003 2.77-10.077 2.77S1.924 23.23 1.924 23.23c-.018-.873.045-2.447.045-3.113.334-.982 1.442-1.123 2.367-1.517 1.016-.434 2.142-.937 3.156-1.358l.868-.24c.345-.24.683-1.039.868-1.436l.41-.101c-.092-.525-.413-.566-.547-.937l-.158-1.677c.003.026-.378-.07-.428-.101-.535-.34-.546-1.72-.598-2.294-.023-.262.337-.477.237-.958-.587-2.816.254-4.134 1.584-4.57.923-.379 2.647-1.081 4.255-.08l.399.373.646.114c.324.189.53.816.53.816z"/><path fill="#fff" fill-opacity=".24" d="M-12 39V-9h48v48zM15.558 6.151s-.206-.627-.53-.816l-.646-.114-.4-.373c-1.607-1.001-3.33-.299-4.254.08-1.33.436-2.171 1.754-1.584 4.57.1.481-.26.696-.237.958.052.574.063 1.954.598 2.294.05.031.43.127.428.102l.158 1.676c.134.371.455.412.548.937l-.41.101c-.186.397-.524 1.196-.87 1.437l-.867.24c-1.014.42-2.14.923-3.156 1.357-.925.394-2.033.535-2.367 1.517 0 .666-.063 2.24-.045 3.113 0 0-.003 2.77 10.076 2.77 10.08 0 10.077-2.77 10.077-2.77.017-.873-.046-2.447-.046-3.113-.334-.982-1.442-1.123-2.367-1.517-1.016-.434-2.142-.937-3.156-1.358l-.868-.24c-.345-.24-.683-1.039-.868-1.436a154.52 154.52 0 00-.553-.08c.029-.615.405-.647.553-1.117.13-.415.014-.953.22-1.337.143-.266.467-.268.629-.496.147-.207.243-.568.289-.822.083-.464.156-1.099-.061-1.559-.125-.264-.204-.29-.24-.61-.042-.39.114-1.658.12-1.932.016-.711 0-.769-.17-1.462z" filter="url(#x)" mask="url(&quot;#y&quot;)"/><path fill="#fff1d8" fill-opacity=".44" d="M1 27V3h22v24H12.074c10.006-.014 10.003-2.77 10.003-2.77.017-.873-.046-2.447-.046-3.113-.334-.982-1.442-1.123-2.367-1.517-1.016-.434-2.142-.937-3.156-1.358l-.868-.24c-.345-.24-.683-1.039-.868-1.436a154.52 154.52 0 00-.553-.08c.029-.615.405-.647.553-1.117.13-.415.014-.953.22-1.337.143-.266.467-.268.629-.496.147-.207.243-.568.289-.822.083-.464.156-1.099-.061-1.559-.125-.264-.204-.29-.24-.61-.042-.39.114-1.658.12-1.932.016-.711 0-.769-.17-1.462 0 0-.207-.627-.531-.816l-.646-.114-.4-.373c-1.607-1.001-3.33-.299-4.254.08-1.33.436-2.171 1.754-1.584 4.57.1.481-.26.696-.237.958.052.574.063 1.954.598 2.294.05.031.43.127.428.102l.158 1.676c.134.371.455.412.548.937l-.41.101c-.186.397-.524 1.196-.87 1.437l-.867.24c-1.014.42-2.14.923-3.156 1.357-.925.394-2.033.535-2.367 1.517 0 .666-.063 2.24-.045 3.113 0 0-.003 2.756 10.002 2.77zm11 0h.074-.148H12z" filter="url(#A)" mask="url(&quot;#B&quot;)"/></g><path fill="#fff" fill-opacity=".24" d="M16 24V-7h34v31zM33 8.22l2.864 2.786 1.146-1.114-2.864-2.787L33 5.99l-4.01 3.902 1.146 1.114z" filter="url(#C)" mask="url(&quot;#D&quot;)"/><path fill="#bb9c66" d="M30.136 11.006L28.99 9.892 33 5.99l1.146 1.114 2.864 2.787-1.146 1.114L33 8.22z"/><path fill="url(#E)" d="M30.136 11.006L28.99 9.892 33 5.99l1.146 1.114 2.864 2.787-1.146 1.114L33 8.22z"/><path fill="#fff" fill-opacity=".24" d="M16 24V-7h34v31zM33 8.22l2.864 2.786 1.146-1.114-2.864-2.787L33 5.99l-4.01 3.902 1.146 1.114z" filter="url(#C)" mask="url(&quot;#D&quot;)"/><path fill="#fff1d8" fill-opacity=".44" d="M29 12v-1.099L30.13 12zm0-7h8v5.882l-2.854-2.777L33 6.99l-4 3.892zm8 7h-1.13L37 10.902zm-4-2.78L35.858 12h-5.716zm2.864 2.786l.007-.006h-.013zm1.146-1.114l-.01-.01v.02zm-8.02 0l.01.01v-.02zm1.146 1.114l.006-.006h-.013z" filter="url(#F)" mask="url(&quot;#G&quot;)"/><path fill="#fff" fill-opacity=".24" d="M16 32V1h34v31zm17.573-13.548l3.437-3.344-1.146-1.114L33 16.78l-2.864-2.786-1.146 1.114L33 19.01z" filter="url(#H)" mask="url(&quot;#I&quot;)"/><path fill="#bb9c66" d="M33 19.01l-4.01-3.902 1.146-1.114L33 16.78l2.864-2.786 1.146 1.114-3.437 3.345z"/><path fill="url(#J)" d="M33 19.01l-4.01-3.902 1.146-1.114L33 16.78l2.864-2.786 1.146 1.114-3.437 3.345z"/><path fill="#fff" fill-opacity=".24" d="M16 32V1h34v31zm17.573-13.548l3.437-3.344-1.146-1.114L33 16.78l-2.864-2.786-1.146 1.114L33 19.01z" filter="url(#H)" mask="url(&quot;#I&quot;)"/><path fill="#fff1d8" fill-opacity=".44" d="M29 20v-3.882L32.99 20zm0-7h8v3.099l-1.136-1.105L33 17.78l-2.864-2.786L29 16.099zm8 7h-3.99l.563-.548L37 16.119zm.01-3.892l-.01-.01v.02zm-8.02 0l.01.01v-.02zM33 20.01l.01-.01h-.02z" filter="url(#K)" mask="url(&quot;#L&quot;)"/></svg>